<svg width="60" height="57" viewBox="0 0 60 57" fill="none" xmlns="http://www.w3.org/2000/svg">
<mask id="mask0" mask-type="alpha" maskUnits="userSpaceOnUse" x="0" y="0" width="60" height="56">
<path fill-rule="evenodd" clip-rule="evenodd" d="M0 55.4306H59.5972V0.000289917H0L0 55.4306Z" fill="white"/>
</mask>
<g mask="url(#mask0)">
<path fill-rule="evenodd" clip-rule="evenodd" d="M57.5366 52.9924C57.4544 53.1433 57.2057 53.4956 56.6879 53.4956H49.4531H29.5195H26.6424C26.1247 53.4956 25.876 53.1433 25.7937 52.9924C25.7105 52.8414 25.5479 52.4427 25.8266 52.0053L37.4318 33.8456C37.4386 33.8369 37.4434 33.8272 37.4492 33.8175L38.7808 31.734L40.9553 32.9534C41.175 33.0753 41.4199 33.1363 41.6657 33.1363C41.9115 33.1363 42.1563 33.0753 42.375 32.9534L44.5495 31.734L57.5037 52.0053C57.7824 52.4427 57.6199 52.8414 57.5366 52.9924ZM8.51857 53.004C8.43534 52.855 8.26986 52.464 8.53308 52.0266L18.1834 36.0434C18.1902 36.0346 18.1941 36.024 18.2008 36.0153L23.8341 26.6843L26.9821 28.4495C27.2008 28.5734 27.4466 28.6343 27.6924 28.6343C27.9382 28.6343 28.1841 28.5734 28.4028 28.4504L31.5518 26.6843L35.5157 33.2504L24.196 50.964C23.7005 51.7392 23.626 52.6546 23.9308 53.4956H9.36147C8.8505 53.4956 8.60276 53.1511 8.51857 53.004ZM2.06083 52.9924C1.9776 52.8414 1.81502 52.4427 2.09373 52.0053L11.6821 37.0024L14.2108 38.4192C14.2863 38.4608 14.3676 38.4811 14.4479 38.4811C14.4489 38.4811 14.4499 38.4801 14.4508 38.4801L6.87534 51.0269C6.4147 51.7904 6.35373 52.6798 6.64792 53.4956H2.90954C2.39179 53.4956 2.14308 53.1434 2.06083 52.9924ZM13.6321 33.9501C13.995 33.3811 14.8999 33.3821 15.2628 33.9492L16.2518 35.4966L14.8718 37.7833C14.8292 37.7001 14.7711 37.6237 14.6841 37.5743L12.2037 36.1856L13.6321 33.9501ZM26.865 21.6646C27.1186 21.2427 27.5279 21.1982 27.6924 21.1982C27.857 21.1982 28.2663 21.2427 28.5208 21.6646L31.0505 25.8559L27.9286 27.6066C27.7844 27.6869 27.6034 27.6898 27.4553 27.6056L24.3344 25.8559L26.865 21.6646ZM35.0715 2.60787V3.2127V10.8337H28.1763V2.60787H35.0715ZM41.1634 3.69658C41.4392 3.69658 41.6831 3.84077 41.8147 4.08367C41.9463 4.32658 41.9357 4.60916 41.7847 4.84141L40.5421 6.75851C40.1753 7.32367 40.1753 8.05335 40.5411 8.61851L41.7847 10.5356C41.9357 10.7669 41.9463 11.0504 41.8147 11.2924C41.6831 11.5353 41.4392 11.6804 41.1634 11.6804H36.0392V11.3175V3.69658H41.1634ZM40.8499 28.4969C41.0308 28.2134 41.3289 28.0508 41.6657 28.0508C42.0015 28.0508 42.2995 28.2134 42.4805 28.4969L44.0279 30.9172L41.9028 32.1085C41.7566 32.1917 41.5757 32.1917 41.4276 32.1085L39.3034 30.9172L40.8499 28.4969ZM59.1344 50.964L44.1121 27.4546V27.4537C43.575 26.6156 42.6605 26.1153 41.6657 26.1153C40.6699 26.1153 39.7553 26.6156 39.2182 27.4546L36.6779 31.4301L30.1776 20.665C29.7344 19.9285 29.0037 19.463 28.1763 19.3237V11.8014H35.0715V12.1643C35.0715 12.4314 35.2882 12.6482 35.5553 12.6482H41.1634C41.8002 12.6482 42.3605 12.3143 42.6653 11.755C42.9682 11.1956 42.9431 10.5434 42.5966 10.0082L41.3531 8.09206C41.1944 7.84722 41.1944 7.5298 41.354 7.28496L42.5966 5.36787C42.9431 4.83367 42.9682 4.18141 42.6653 3.62206C42.3615 3.06174 41.8002 2.72883 41.1634 2.72883H36.0392V2.124C36.0392 1.85593 35.8234 1.64012 35.5553 1.64012H28.1763V0.483673C28.1763 0.216576 27.9605 -0.000198364 27.6924 -0.000198364C27.4253 -0.000198364 27.2086 0.216576 27.2086 0.483673V2.124V11.3175V19.3237C26.3821 19.463 25.6515 19.9285 25.2073 20.665L17.3676 33.6482L16.8944 32.9069C16.3573 32.0688 15.4428 31.5675 14.4479 31.5675C13.4521 31.5675 12.5376 32.0688 12.0005 32.9079L0.462116 50.964C-0.116594 51.8717 -0.154336 52.9769 0.363406 53.9224C0.88018 54.8669 1.83147 55.4311 2.90954 55.4311H9.36147H26.6424H29.5195H49.4531H56.6879C57.765 55.4311 58.7173 54.8669 59.2341 53.9224C59.7518 52.9769 59.715 51.8717 59.1344 50.964Z" fill="white"/>
</g>
</svg>
